# xmcd
# 
# Track frame offsets:
#     150
#     27581
#     52736
#     72738
#     93499
# 
# Disc length: 1605
# 
# Revision: 2
# Processed by: cddbd v1.5.2PL0 Copyright (c) Steve Scherf et al.
# Submitted via: BonkEnc v1.0
# 
DISCID=41064305
DTITLE=Leonard Cohen - Best Of ...
DYEAR=0
DGENRE=
TTITLE0=Dance Me To The End Of Love
TTITLE1=Everybody Knows
TTITLE2=I'm Your Man
TTITLE3=Hallelujah
TTITLE4=Take This Waltz
EXTD=
EXTT0=
EXTT1=
EXTT2=
EXTT3=
EXTT4=
PLAYORDER=
